# Blender v2.83.5 OBJ File: 'Table .blend'
# www.blender.org
mtllib table.mtl
o Cube
v 1.599517 0.088143 -2.958531
v 1.599517 -0.088143 -2.958531
v 1.599517 0.088143 2.958531
v 1.599517 -0.088143 2.958531
v -1.599517 0.088143 -2.958531
v -1.599517 -0.088143 -2.958531
v -1.599517 0.088143 2.958531
v -1.599517 -0.088143 2.958531
v 1.273141 -0.088143 -2.958531
v 1.214997 -0.088143 -2.958531
v 1.244069 -0.086884 -2.916275
v 0.917693 -0.088143 -2.958531
v 0.859549 -0.088143 -2.958531
v 0.888621 -0.086884 -2.916275
v 0.562245 -0.088143 -2.958531
v 0.504100 -0.088143 -2.958531
v 0.533172 -0.086884 -2.916275
v 0.206796 -0.088143 -2.958531
v 0.148652 -0.088143 -2.958531
v 0.177724 -0.086884 -2.916275
v -0.148652 -0.088143 -2.958531
v -0.206796 -0.088143 -2.958531
v -0.177724 -0.086884 -2.916275
v -0.504100 -0.088143 -2.958531
v -0.562245 -0.088143 -2.958531
v -0.533172 -0.086884 -2.916275
v -0.859549 -0.088143 -2.958531
v -0.917693 -0.088143 -2.958531
v -0.888621 -0.086884 -2.916275
v -1.214997 -0.088143 -2.958531
v -1.273141 -0.088143 -2.958531
v -1.244069 -0.086884 -2.916275
v 1.273141 0.088143 2.958531
v 1.214997 0.088143 2.958531
v 1.244069 0.080455 2.916275
v 0.917693 0.088143 2.958531
v 0.859549 0.088143 2.958531
v 0.888621 0.080455 2.916275
v 0.562245 0.088143 2.958531
v 0.504100 0.088143 2.958531
v 0.533172 0.080455 2.916275
v 0.206796 0.088143 2.958531
v 0.148652 0.088143 2.958531
v 0.177724 0.080455 2.916275
v -0.148652 0.088143 2.958531
v -0.206796 0.088143 2.958531
v -0.177724 0.080455 2.916275
v -0.504100 0.088143 2.958531
v -0.562245 0.088143 2.958531
v -0.533172 0.080455 2.916275
v -0.859549 0.088143 2.958531
v -0.917693 0.088143 2.958531
v -0.888621 0.080455 2.916275
v -1.214997 0.088143 2.958531
v -1.273141 0.088143 2.958531
v -1.244069 0.080455 2.916275
v -1.214997 -0.088143 2.958531
v -1.273141 -0.088143 2.958531
v -1.244069 -0.086884 2.916275
v -0.859549 -0.088143 2.958531
v -0.917693 -0.088143 2.958531
v -0.888621 -0.086884 2.916275
v -0.504100 -0.088143 2.958531
v -0.562245 -0.088143 2.958531
v -0.533172 -0.086884 2.916275
v -0.148652 -0.088143 2.958531
v -0.206796 -0.088143 2.958531
v -0.177724 -0.086884 2.916275
v 0.206796 -0.088143 2.958531
v 0.148652 -0.088143 2.958531
v 0.177724 -0.086884 2.916275
v 0.562245 -0.088143 2.958531
v 0.504100 -0.088143 2.958531
v 0.533172 -0.086884 2.916275
v 0.917693 -0.088143 2.958531
v 0.859549 -0.088143 2.958531
v 0.888621 -0.086884 2.916275
v 1.273141 -0.088143 2.958531
v 1.214997 -0.088143 2.958531
v 1.244069 -0.086884 2.916275
v -1.273141 0.088143 -2.958531
v -1.214997 0.088143 -2.958531
v -1.244069 0.080455 -2.916275
v -0.917693 0.088143 -2.958531
v -0.859549 0.088143 -2.958531
v -0.888621 0.080455 -2.916275
v -0.562245 0.088143 -2.958531
v -0.504100 0.088143 -2.958531
v -0.533172 0.080455 -2.916275
v -0.206796 0.088143 -2.958531
v -0.148652 0.088143 -2.958531
v -0.177724 0.080455 -2.916275
v 0.148652 0.088143 -2.958531
v 0.206796 0.088143 -2.958531
v 0.177724 0.080455 -2.916275
v 0.504100 0.088143 -2.958531
v 0.562245 0.088143 -2.958531
v 0.533172 0.080455 -2.916275
v 0.859549 0.088143 -2.958531
v 0.917693 0.088143 -2.958531
v 0.888621 0.080455 -2.916275
v 1.214997 0.088143 -2.958531
v 1.273141 0.088143 -2.958531
v 1.244069 0.080455 -2.916275
v -1.355824 -0.287292 2.625972
v -1.355824 -0.036537 2.625972
v -1.355824 -0.287292 -2.625972
v -1.355824 -0.036537 -2.625972
v 1.355824 -0.287292 2.625972
v 1.355824 -0.036537 2.625972
v 1.355824 -0.287292 -2.625972
v 1.355824 -0.036537 -2.625972
v 1.289078 -3.150129 2.710922
v 1.289078 -0.079407 2.710922
v 1.289078 -3.150129 2.489078
v 1.289078 -0.079407 2.489078
v 1.510922 -3.150129 2.710922
v 1.510922 -0.079407 2.710922
v 1.510922 -3.150129 2.489078
v 1.510922 -0.079407 2.489078
v 1.289078 -3.150129 -2.489078
v 1.289078 -0.079407 -2.489078
v 1.289078 -3.150129 -2.710922
v 1.289078 -0.079407 -2.710922
v 1.510922 -3.150129 -2.489078
v 1.510922 -0.079407 -2.489078
v 1.510922 -3.150129 -2.710922
v 1.510922 -0.079407 -2.710922
v -1.510922 -3.150129 2.710922
v -1.510922 -0.079407 2.710922
v -1.510922 -3.150129 2.489078
v -1.510922 -0.079407 2.489078
v -1.289078 -3.150129 2.710922
v -1.289078 -0.079407 2.710922
v -1.289078 -3.150129 2.489078
v -1.289078 -0.079407 2.489078
v -1.510922 -3.150129 -2.489078
v -1.510922 -0.079407 -2.489078
v -1.510922 -3.150129 -2.710922
v -1.510922 -0.079407 -2.710922
v -1.289078 -3.150129 -2.489078
v -1.289078 -0.079407 -2.489078
v -1.289078 -3.150129 -2.710922
v -1.289078 -0.079407 -2.710922
v -1.467573 -2.389889 2.525260
v -1.467573 -2.249459 2.525260
v -1.467573 -2.389889 -2.525260
v -1.467573 -2.249459 -2.525260
v -1.327143 -2.389889 2.525260
v -1.327143 -2.249459 2.525260
v -1.327143 -2.389889 -2.525260
v -1.327143 -2.249459 -2.525260
v 1.436749 -2.389889 2.670215
v 1.436749 -2.249459 2.670215
v -1.431466 -2.389889 2.670215
v -1.431466 -2.249459 2.670215
v 1.436749 -2.389889 2.529785
v 1.436749 -2.249459 2.529785
v -1.431466 -2.389889 2.529785
v -1.431466 -2.249459 2.529785
v 1.436749 -2.389889 -2.529785
v 1.436749 -2.249459 -2.529785
v -1.431466 -2.389889 -2.529785
v -1.431466 -2.249459 -2.529785
v 1.436749 -2.389889 -2.670215
v 1.436749 -2.249459 -2.670215
v -1.431466 -2.389889 -2.670215
v -1.431466 -2.249459 -2.670215
vt 0.081038 1.061348
vt -0.013928 1.061348
vt -0.013928 -0.098077
vt 0.081038 -0.098077
vt 0.971897 0.876016
vt 0.954257 0.876016
vt 0.954257 0.411925
vt 0.971897 0.411925
vt 0.237362 0.802967
vt 0.255002 0.802967
vt 0.255002 0.831271
vt 0.237362 0.831271
vt 0.518740 1.006731
vt 0.476122 1.006731
vt 0.476122 -0.114521
vt 0.518740 -0.114521
vt 0.571973 0.000000
vt 0.601722 0.000000
vt 0.601721 0.563321
vt 0.571973 0.563321
vt 0.916900 1.061348
vt 0.821934 1.061348
vt 0.821934 -0.098077
vt 0.916900 -0.098077
vt 0.320099 0.000000
vt 0.352756 0.000000
vt 0.352756 0.563321
vt 0.320098 0.563321
vt 0.358574 0.000000
vt 0.388323 0.000000
vt 0.388322 0.563321
vt 0.358574 0.563321
vt 0.394141 0.000000
vt 0.423889 0.000000
vt 0.423889 0.563321
vt 0.394140 0.563321
vt 0.429707 0.000000
vt 0.459456 0.000000
vt 0.459455 0.563321
vt 0.429707 0.563321
vt 0.465273 0.000000
vt 0.495022 0.000000
vt 0.495022 0.563321
vt 0.465273 0.563321
vt 0.500840 0.000000
vt 0.530589 0.000000
vt 0.530588 0.563321
vt 0.500840 0.563321
vt 0.536407 0.000000
vt 0.566155 0.000000
vt 0.566155 0.563321
vt 0.536406 0.563321
vt 0.237362 0.563321
vt 0.255002 0.563321
vt 0.255002 0.594393
vt 0.237362 0.594393
vt 0.237362 0.599928
vt 0.255002 0.599928
vt 0.255002 0.628233
vt 0.237362 0.628233
vt 0.237362 0.633768
vt 0.255002 0.633768
vt 0.255002 0.662072
vt 0.237362 0.662072
vt 0.237362 0.667608
vt 0.255002 0.667608
vt 0.255002 0.695912
vt 0.237362 0.695912
vt 0.237362 0.701448
vt 0.255002 0.701448
vt 0.255002 0.729752
vt 0.237362 0.729752
vt 0.237362 0.735287
vt 0.255002 0.735287
vt 0.255002 0.763591
vt 0.237362 0.763591
vt 0.237362 0.769127
vt 0.255002 0.769127
vt 0.255002 0.797431
vt 0.237362 0.797431
vt 0.607539 0.000000
vt 0.640197 0.000000
vt 0.640197 0.563321
vt 0.607539 0.563321
vt 0.805015 1.061348
vt 0.718509 1.061348
vt 0.718509 -0.098077
vt 0.805016 -0.098077
vt 0.954257 0.429536
vt 0.936618 0.429536
vt 0.936618 0.411925
vt 0.954257 0.411925
vt 0.598165 1.061348
vt 0.511658 1.061348
vt 0.511658 -0.098077
vt 0.598165 -0.098077
vt 0.494740 1.061348
vt 0.408233 1.061348
vt 0.408233 -0.098077
vt 0.494740 -0.098077
vt 0.391314 1.061348
vt 0.304807 1.061348
vt 0.304807 -0.098077
vt 0.391314 -0.098077
vt 0.287889 1.061348
vt 0.201382 1.061348
vt 0.201382 -0.098077
vt 0.287889 -0.098077
vt 0.184464 1.061348
vt 0.097957 1.061348
vt 0.097957 -0.098077
vt 0.184464 -0.098077
vt 0.635789 0.580933
vt 0.618149 0.580933
vt 0.618149 0.563321
vt 0.635789 0.563321
vt 0.511123 0.600484
vt 0.493484 0.600484
vt 0.493484 0.584441
vt 0.511123 0.584441
vt 0.701590 1.061348
vt 0.615083 1.061348
vt 0.615083 -0.098077
vt 0.701590 -0.098077
vt 0.546402 0.589324
vt 0.564041 0.589324
vt 0.564041 0.605367
vt 0.546402 0.605367
vt 0.528763 0.589324
vt 0.546402 0.589324
vt 0.546402 0.605367
vt 0.528763 0.605367
vt 0.475844 0.600484
vt 0.458205 0.600484
vt 0.458205 0.584441
vt 0.475844 0.584441
vt 0.528763 0.600484
vt 0.511123 0.600484
vt 0.511123 0.584441
vt 0.528763 0.584441
vt 0.458205 0.600484
vt 0.440566 0.600484
vt 0.440566 0.584441
vt 0.458205 0.584441
vt 0.475844 0.589324
vt 0.493484 0.589324
vt 0.493484 0.605367
vt 0.475844 0.605367
vt 0.237488 0.597161
vt 0.254232 0.597161
vt 0.237488 0.631000
vt 0.254232 0.631000
vt 0.237488 0.664840
vt 0.254232 0.664840
vt 0.237488 0.698680
vt 0.254232 0.698680
vt 0.237488 0.732520
vt 0.254232 0.732520
vt 0.237488 0.766359
vt 0.254232 0.766359
vt 0.237488 0.800199
vt 0.254232 0.800199
vt 0.255002 0.836806
vt 0.237362 0.836806
vt 0.237488 0.834039
vt 0.254232 0.834039
vt 0.355665 0.559298
vt 0.355665 0.004023
vt 0.391231 0.559298
vt 0.391232 0.004023
vt 0.426798 0.559298
vt 0.426798 0.004023
vt 0.462364 0.559298
vt 0.462364 0.004023
vt 0.497931 0.559298
vt 0.497931 0.004023
vt 0.533497 0.559298
vt 0.533498 0.004023
vt 0.569064 0.559298
vt 0.569064 0.004023
vt 0.604630 0.559298
vt 0.604630 0.004023
vt 0.510997 0.605367
vt 0.494253 0.605367
vt 0.601246 0.600492
vt 0.601246 0.584561
vt 0.606378 0.584441
vt 0.606378 0.601224
vt 0.546528 0.584441
vt 0.563272 0.584441
vt 0.606378 0.600492
vt 0.606378 0.584561
vt 0.611510 0.584441
vt 0.611510 0.601224
vt 0.528889 0.584441
vt 0.545633 0.584441
vt 0.618150 0.601867
vt 0.618149 0.585936
vt 0.623282 0.585816
vt 0.623282 0.602599
vt 0.475718 0.605367
vt 0.458974 0.605367
vt 0.628414 0.601867
vt 0.628414 0.585936
vt 0.633546 0.585816
vt 0.633546 0.602599
vt 0.528637 0.605367
vt 0.511892 0.605367
vt 0.623282 0.601867
vt 0.623282 0.585936
vt 0.628414 0.585816
vt 0.628414 0.602599
vt 0.458079 0.605367
vt 0.441335 0.605367
vt 0.564041 0.613862
vt 0.564041 0.597931
vt 0.569174 0.597811
vt 0.569174 0.614594
vt 0.475970 0.584441
vt 0.492714 0.584441
vt 0.633546 0.601867
vt 0.633546 0.585936
vt 0.638679 0.585816
vt 0.638679 0.602599
vt 0.635663 0.585816
vt 0.618919 0.585816
vt 0.611510 0.600492
vt 0.611510 0.584561
vt 0.616643 0.584441
vt 0.616643 0.601224
vt 0.813475 -0.089797
vt 0.813475 1.053068
vt 0.710050 -0.089797
vt 0.710050 1.053068
vt 0.606624 -0.089797
vt 0.606624 1.053068
vt 0.503199 -0.089797
vt 0.503199 1.053068
vt 0.399773 -0.089797
vt 0.399773 1.053068
vt 0.296348 -0.089797
vt 0.296348 1.053068
vt 0.192923 -0.089797
vt 0.192923 1.053068
vt 0.089497 -0.089797
vt 0.089497 1.053068
vt 0.255002 0.867878
vt 0.237362 0.867878
vt 0.610312 0.743042
vt 0.569466 0.743042
vt 0.569466 0.072451
vt 0.610312 0.072452
vt 0.212271 0.563321
vt 0.237362 0.563321
vt 0.237362 0.821478
vt 0.212271 0.821478
vt 0.478623 0.023026
vt 0.526215 0.023026
vt 0.526215 0.804351
vt 0.478623 0.804351
vt 0.895207 0.316748
vt 0.952938 0.316748
vt 0.952938 0.653427
vt 0.895207 0.653427
vt 0.159241 -0.048290
vt 0.722799 -0.048290
vt 0.722799 0.990220
vt 0.159241 0.990220
vt 0.911527 0.500000
vt 0.640197 0.500000
vt 0.640197 0.000000
vt 0.911527 0.000000
vt 0.273290 0.563321
vt 0.273290 0.855663
vt 0.255002 0.855663
vt 0.255002 0.563321
vt 0.167875 0.855662
vt 0.167875 0.563321
vt 0.190073 0.563321
vt 0.190073 0.855662
vt 0.125516 0.269466
vt 0.125516 0.820876
vt 0.091022 0.820876
vt 0.091022 0.269466
vt 0.074322 0.563321
vt 0.074322 0.855663
vt 0.061740 0.855663
vt 0.061740 0.563321
vt 0.462764 0.563321
vt 0.484962 0.563321
vt 0.484962 0.584441
vt 0.462764 0.584441
vt 0.462764 0.584441
vt 0.440566 0.584441
vt 0.440566 0.563321
vt 0.462764 0.563321
vt 0.309865 0.855662
vt 0.309865 0.563321
vt 0.328153 0.563321
vt 0.328153 0.855662
vt 0.123479 0.855663
vt 0.123479 0.563321
vt 0.145677 0.563321
vt 0.145677 0.855663
vt 0.123479 0.563321
vt 0.123479 0.855663
vt 0.105192 0.855663
vt 0.105192 0.563321
vt 0.092610 0.855663
vt 0.092609 0.563321
vt 0.529358 0.563321
vt 0.551556 0.563321
vt 0.551556 0.584441
vt 0.529358 0.584441
vt 0.507160 0.584441
vt 0.484962 0.584441
vt 0.484962 0.563321
vt 0.507160 0.563321
vt 0.291577 0.855662
vt 0.291577 0.563321
vt 0.309865 0.563321
vt 0.309865 0.855662
vt 0.190073 0.855662
vt 0.190073 0.563321
vt 0.212271 0.563321
vt 0.212271 0.855662
vt 0.030870 0.563321
vt 0.030870 0.855663
vt 0.012582 0.855663
vt 0.012582 0.563321
vt 0.000000 0.855663
vt 0.000000 0.563321
vt 0.573754 0.563321
vt 0.595951 0.563321
vt 0.595951 0.584441
vt 0.573754 0.584441
vt 0.529358 0.584441
vt 0.507160 0.584441
vt 0.507160 0.563321
vt 0.529358 0.563321
vt 0.291577 0.563321
vt 0.291577 0.855663
vt 0.273290 0.855663
vt 0.273290 0.563321
vt 0.145677 0.855662
vt 0.145677 0.563321
vt 0.167875 0.563321
vt 0.167875 0.855662
vt 0.061740 0.563321
vt 0.061740 0.855663
vt 0.043452 0.855663
vt 0.043452 0.563321
vt 0.030870 0.855663
vt 0.030870 0.563321
vt 0.551556 0.563321
vt 0.573754 0.563321
vt 0.573754 0.584441
vt 0.551556 0.584441
vt 0.618149 0.584441
vt 0.595951 0.584441
vt 0.595951 0.563321
vt 0.618149 0.563321
vt 0.989812 0.396126
vt 0.975760 0.396126
vt 0.975761 0.000000
vt 0.989812 0.000000
vt 0.564041 0.597811
vt 0.564041 0.584441
vt 0.578093 0.584441
vt 0.578093 0.597811
vt 0.961709 0.000000
vt 0.975760 0.000000
vt 0.975760 0.396126
vt 0.961709 0.396126
vt 0.975760 0.403704
vt 0.961709 0.403704
vt 0.971897 0.411925
vt 0.985948 0.411925
vt 0.985948 0.892748
vt 0.971897 0.892748
vt 1.000000 0.892748
vt 0.985948 0.892748
vt 0.985948 0.411925
vt 1.000000 0.411925
vt 0.440566 0.718095
vt 0.426514 0.718095
vt 0.426514 0.563321
vt 0.440566 0.563321
vt 0.589669 0.597811
vt 0.589669 0.584441
vt 0.601246 0.584441
vt 0.601246 0.597811
vt 0.356256 0.836383
vt 0.342205 0.836383
vt 0.342205 0.563321
vt 0.356256 0.563321
vt 0.440566 0.729109
vt 0.426514 0.729109
vt 0.384359 0.836383
vt 0.370308 0.836383
vt 0.370308 0.563321
vt 0.384359 0.563321
vt 0.412462 0.836383
vt 0.398411 0.836383
vt 0.398411 0.563321
vt 0.412462 0.563321
vt 0.426514 0.718095
vt 0.412462 0.718095
vt 0.412462 0.563321
vt 0.426514 0.563321
vt 0.578093 0.597811
vt 0.578093 0.584441
vt 0.589669 0.584441
vt 0.589669 0.597811
vt 0.342205 0.836383
vt 0.328153 0.836383
vt 0.328153 0.563321
vt 0.342205 0.563321
vt 0.426514 0.729110
vt 0.412462 0.729109
vt 0.370308 0.836383
vt 0.356256 0.836383
vt 0.356256 0.563321
vt 0.370308 0.563321
vt 0.398411 0.836383
vt 0.384359 0.836383
vt 0.384359 0.563321
vt 0.398411 0.563321
vn 0.0000 1.0000 0.0000
vn -1.0000 0.0000 0.0000
vn 0.0000 0.0000 -1.0000
vn 1.0000 0.0000 0.0000
vn 0.0000 -1.0000 0.0000
vn 0.0000 0.0000 1.0000
vn -0.8238 0.0000 -0.5668
vn 0.8239 0.0000 -0.5668
vn -0.8239 0.0000 -0.5668
vn -0.0433 -0.9991 0.0000
vn 0.0433 -0.9991 0.0000
vn 0.8238 0.0000 0.5668
vn -0.8239 0.0000 0.5668
vn 0.8239 0.0000 0.5668
vn 0.2557 0.9668 0.0000
vn -0.2557 0.9668 0.0000
usemtl Material
s off
f 81/1/1 5/2/1 7/3/1 55/4/1
f 8/5/2 7/6/2 5/7/2 6/8/2
f 12/9/3 100/10/3 102/11/3 10/12/3
f 2/13/4 1/14/4 3/15/4 4/16/4
f 12/17/5 10/18/5 79/19/5 75/20/5
f 1/21/1 103/22/1 33/23/1 3/24/1
f 6/25/5 31/26/5 58/27/5 8/28/5
f 30/29/5 28/30/5 61/31/5 57/32/5
f 27/33/5 25/34/5 64/35/5 60/36/5
f 24/37/5 22/38/5 67/39/5 63/40/5
f 21/41/5 19/42/5 70/43/5 66/44/5
f 18/45/5 16/46/5 73/47/5 69/48/5
f 15/49/5 13/50/5 76/51/5 72/52/5
f 6/53/3 5/54/3 81/55/3 31/56/3
f 30/57/3 82/58/3 84/59/3 28/60/3
f 27/61/3 85/62/3 87/63/3 25/64/3
f 24/65/3 88/66/3 90/67/3 22/68/3
f 21/69/3 91/70/3 93/71/3 19/72/3
f 18/73/3 94/74/3 96/75/3 16/76/3
f 15/77/3 97/78/3 99/79/3 13/80/3
f 9/81/5 2/82/5 4/83/5 78/84/5
f 102/85/1 100/86/1 36/87/1 34/88/1
f 4/89/6 3/90/6 33/91/6 78/92/6
f 96/93/1 94/94/1 42/95/1 40/96/1
f 93/97/1 91/98/1 45/99/1 43/100/1
f 90/101/1 88/102/1 48/103/1 46/104/1
f 87/105/1 85/106/1 51/107/1 49/108/1
f 84/109/1 82/110/1 54/111/1 52/112/1
f 58/113/6 55/114/6 7/115/6 8/116/6
f 79/117/6 34/118/6 36/119/6 75/120/6
f 99/121/1 97/122/1 39/123/1 37/124/1
f 76/125/6 37/126/6 39/127/6 72/128/6
f 73/129/6 40/130/6 42/131/6 69/132/6
f 70/133/6 43/134/6 45/135/6 66/136/6
f 67/137/6 46/138/6 48/139/6 63/140/6
f 64/141/6 49/142/6 51/143/6 60/144/6
f 61/145/6 52/146/6 54/147/6 57/148/6
f 82/58/7 30/57/7 32/149/7 83/150/7
f 83/150/8 32/149/8 31/56/8 81/55/8
f 85/62/9 27/61/9 29/151/9 86/152/9
f 86/152/8 29/151/8 28/60/8 84/59/8
f 88/66/9 24/65/9 26/153/9 89/154/9
f 89/154/8 26/153/8 25/64/8 87/63/8
f 91/70/9 21/69/9 23/155/9 92/156/9
f 92/156/8 23/155/8 22/68/8 90/67/8
f 94/74/9 18/73/9 20/157/9 95/158/9
f 95/158/8 20/157/8 19/72/8 93/71/8
f 97/78/9 15/77/9 17/159/9 98/160/9
f 98/160/8 17/159/8 16/76/8 96/75/8
f 100/10/9 12/9/9 14/161/9 101/162/9
f 101/162/8 14/161/8 13/80/8 99/79/8
f 103/163/7 9/164/7 11/165/7 104/166/7
f 104/166/8 11/165/8 10/12/8 102/11/8
f 30/29/10 57/32/10 59/167/10 32/168/10
f 32/168/11 59/167/11 58/27/11 31/26/11
f 27/33/10 60/36/10 62/169/10 29/170/10
f 29/170/11 62/169/11 61/31/11 28/30/11
f 24/37/10 63/40/10 65/171/10 26/172/10
f 26/172/11 65/171/11 64/35/11 25/34/11
f 21/41/10 66/44/10 68/173/10 23/174/10
f 23/174/11 68/173/11 67/39/11 22/38/11
f 18/45/10 69/48/10 71/175/10 20/176/10
f 20/176/11 71/175/11 70/43/11 19/42/11
f 15/49/10 72/52/10 74/177/10 17/178/10
f 17/178/11 74/177/11 73/47/11 16/46/11
f 12/17/10 75/20/10 77/179/10 14/180/10
f 14/180/11 77/179/11 76/51/11 13/50/11
f 9/81/10 78/84/10 80/181/10 11/182/10
f 11/182/11 80/181/11 79/19/11 10/18/11
f 34/118/12 79/117/12 80/183/12 35/184/12
f 35/185/13 80/186/13 78/187/13 33/188/13
f 37/126/14 76/125/14 77/189/14 38/190/14
f 38/191/13 77/192/13 75/193/13 36/194/13
f 40/130/14 73/129/14 74/195/14 41/196/14
f 41/197/13 74/198/13 72/199/13 39/200/13
f 43/134/14 70/133/14 71/201/14 44/202/14
f 44/203/13 71/204/13 69/205/13 42/206/13
f 46/138/14 67/137/14 68/207/14 47/208/14
f 47/209/13 68/210/13 66/211/13 45/212/13
f 49/142/14 64/141/14 65/213/14 50/214/14
f 50/215/13 65/216/13 63/217/13 48/218/13
f 52/146/14 61/145/14 62/219/14 53/220/14
f 53/221/13 62/222/13 60/223/13 51/224/13
f 55/114/12 58/113/12 59/225/12 56/226/12
f 56/227/13 59/228/13 57/229/13 54/230/13
f 102/85/15 34/88/15 35/231/15 104/232/15
f 104/232/16 35/231/16 33/23/16 103/22/16
f 99/121/15 37/124/15 38/233/15 101/234/15
f 101/234/16 38/233/16 36/87/16 100/86/16
f 96/93/15 40/96/15 41/235/15 98/236/15
f 98/236/16 41/235/16 39/123/16 97/122/16
f 93/97/15 43/100/15 44/237/15 95/238/15
f 95/238/16 44/237/16 42/95/16 94/94/16
f 90/101/15 46/104/15 47/239/15 92/240/15
f 92/240/16 47/239/16 45/99/16 91/98/16
f 87/105/15 49/108/15 50/241/15 89/242/15
f 89/242/16 50/241/16 48/103/16 88/102/16
f 84/109/15 52/112/15 53/243/15 86/244/15
f 86/244/16 53/243/16 51/107/16 85/106/16
f 81/1/15 55/4/15 56/245/15 83/246/15
f 83/246/16 56/245/16 54/111/16 82/110/16
f 9/164/3 103/163/3 1/247/3 2/248/3
f 105/249/2 106/250/2 108/251/2 107/252/2
f 107/253/3 108/254/3 112/255/3 111/256/3
f 111/257/4 112/258/4 110/259/4 109/260/4
f 109/261/6 110/262/6 106/263/6 105/264/6
f 107/265/5 111/266/5 109/267/5 105/268/5
f 112/269/1 108/270/1 106/271/1 110/272/1
f 113/273/2 114/274/2 116/275/2 115/276/2
f 115/277/3 116/278/3 120/279/3 119/280/3
f 119/281/4 120/282/4 118/283/4 117/284/4
f 117/285/6 118/286/6 114/287/6 113/288/6
f 115/289/5 119/290/5 117/291/5 113/292/5
f 120/293/1 116/294/1 114/295/1 118/296/1
f 121/297/2 122/298/2 124/299/2 123/300/2
f 123/301/3 124/302/3 128/303/3 127/304/3
f 127/305/4 128/306/4 126/307/4 125/308/4
f 125/308/6 126/307/6 122/309/6 121/310/6
f 123/311/5 127/312/5 125/313/5 121/314/5
f 128/315/1 124/316/1 122/317/1 126/318/1
f 129/319/2 130/320/2 132/321/2 131/322/2
f 131/323/3 132/324/3 136/325/3 135/326/3
f 135/327/4 136/328/4 134/329/4 133/330/4
f 133/330/6 134/329/6 130/331/6 129/332/6
f 131/333/5 135/334/5 133/335/5 129/336/5
f 136/337/1 132/338/1 130/339/1 134/340/1
f 137/341/2 138/342/2 140/343/2 139/344/2
f 139/345/3 140/346/3 144/347/3 143/348/3
f 143/349/4 144/350/4 142/351/4 141/352/4
f 141/352/6 142/351/6 138/353/6 137/354/6
f 139/355/5 143/356/5 141/357/5 137/358/5
f 144/359/1 140/360/1 138/361/1 142/362/1
f 145/363/2 146/364/2 148/365/2 147/366/2
f 147/367/3 148/368/3 152/369/3 151/370/3
f 151/371/4 152/372/4 150/373/4 149/374/4
f 149/374/6 150/373/6 146/375/6 145/376/6
f 147/377/5 151/378/5 149/379/5 145/380/5
f 152/381/1 148/382/1 146/383/1 150/384/1
f 153/385/6 154/386/6 156/387/6 155/388/6
f 155/389/2 156/390/2 160/391/2 159/392/2
f 159/393/3 160/394/3 158/395/3 157/396/3
f 157/397/4 158/398/4 154/386/4 153/385/4
f 155/399/5 159/400/5 157/401/5 153/402/5
f 160/403/1 156/404/1 154/405/1 158/406/1
f 161/407/6 162/408/6 164/409/6 163/410/6
f 163/411/2 164/412/2 168/413/2 167/414/2
f 167/415/3 168/416/3 166/417/3 165/418/3
f 165/419/4 166/420/4 162/408/4 161/407/4
f 163/421/5 167/422/5 165/423/5 161/424/5
f 168/425/1 164/426/1 162/427/1 166/428/1
